<svg width="230" height="118" viewBox="0 0 230 118" fill="none" xmlns="http://www.w3.org/2000/svg">
<g clip-path="url(#clip0_704_2)">
<path d="M68.4297 8.01008C68.4297 3.58623 72.0115 0 76.4297 0H216.298C220.716 0 224.298 3.58624 224.298 8.01009V109.99C224.298 114.414 220.716 118 216.298 118H76.4297C72.0115 118 68.4297 114.414 68.4297 109.99V8.01008Z" fill="white"/>
<path d="M229.98 13.3096C230.001 11.561 229.673 9.82583 229.017 8.20562C228.36 6.5854 227.388 5.11263 226.157 3.87342C224.926 2.6342 223.461 1.65341 221.848 0.9884C220.234 0.323385 218.505 -0.0125093 216.76 0.000356063H159.669L192.424 54.8674L195.447 55.2509L197.36 57.7632V60.1028L199.426 60.5247L201.339 63.1329V65.3958L203.482 65.7794L205.644 68.1382V73.3545C208.218 75.6838 211.119 77.6222 214.254 79.1078C217.143 80.2201 217.468 84.8611 219.209 87.335C221.39 90.9403 224.375 92.3787 223.743 94.3923C222.289 99.7812 216.779 108.871 211.652 109.293H191.372V118H216.779C218.528 117.992 220.258 117.639 221.869 116.959C223.481 116.28 224.943 115.288 226.172 114.041C227.4 112.793 228.37 111.315 229.027 109.691C229.684 108.067 230.015 106.328 230 104.576V13.3096" fill="#BF0D3E"/>
<path d="M90.3467 109.374H80.6119C80.6119 84.8006 88.8286 71.2103 98.6772 68.5076C100.025 68.2584 99.3794 61.5496 97.6715 59.4986H91.9786C91.0678 59.4986 91.5991 57.7734 91.5991 57.7734L96.2103 47.8251L95.5841 45.1032H78.5435L92.5479 35.2124C93.1931 9.12443 119.684 7.0926 135.643 17.961C145.131 24.3057 145.852 36.88 145.131 45.5632C145.017 46.1191 142.664 45.7549 142.664 45.7549C142.664 45.7549 141.051 55.339 145.264 55.339H163.879C171.47 55.0324 178.795 60.2269 178.795 60.2269L180.579 53.6522L139.799 0.000351402H13.1705C9.66757 -0.0203225 6.29835 1.35754 3.79627 3.834C2.5763 5.08123 1.61285 6.56009 0.961468 8.18529C0.310087 9.81048 -0.0163337 11.5499 0.00103173 13.3031V104.64C-0.0207896 106.388 0.303734 108.123 0.955509 109.742C1.60728 111.362 2.57315 112.834 3.79627 114.071C6.28292 116.582 9.65403 117.995 13.1705 118H95.3754C93.3639 114.511 91.0678 110.544 90.3657 109.374" fill="#041E42"/>
<path d="M19.0088 90.4028C19.0088 88.7059 19.5123 87.0472 20.4554 85.6372C21.3985 84.2273 22.7387 83.1296 24.3058 82.4836C25.873 81.8375 27.5965 81.6722 29.2577 82.0086C30.9188 82.3449 32.4427 83.1678 33.636 84.3728C34.8293 85.5778 35.6382 87.1106 35.9601 88.7767C36.2819 90.4428 36.1022 92.1671 35.4437 93.7307C34.7852 95.2944 33.6777 96.6269 32.2616 97.5592C30.8455 98.4916 29.1848 98.9817 27.49 98.9673C26.3695 98.9698 25.2596 98.7494 24.2248 98.319C23.1899 97.8885 22.2508 97.2566 21.4618 96.4599C20.6728 95.6632 20.0497 94.7175 19.6286 93.6777C19.2075 92.6379 18.9968 91.5248 19.0088 90.4028Z" fill="white"/>
</g>
<defs>
<clipPath id="clip0_704_2">
<rect width="230" height="118" fill="white"/>
</clipPath>
</defs>
</svg>
